<svg viewBox="0 0 16 13" xmlns="http://www.w3.org/2000/svg"><path fill-rule="evenodd" d="M7.25 2.0922C7.22868 2.08511 7.20612 2.07766 7.18239 2.06989C6.98064 2.00376 6.69903 1.91563 6.38108 1.82794C5.70284 1.64089 5.01308 1.5 4.57143 1.5C2.84299 1.5 1.93446 1.72394 1.5 1.88852V11.1454C2.36271 10.9194 3.44944 10.7137 4.57143 10.7137C5.16094 10.7137 5.89777 10.874 6.49079 11.0251C6.74594 11.0901 7.00284 11.161 7.25 11.2327V2.0922ZM8.75 12.798C9.65479 12.5211 10.8005 12.2137 11.4286 12.2137C12.4593 12.2137 13.4901 12.4207 14.3112 12.648C15.1151 12.8705 16 12.3195 16 11.5257V1.3678C16 1.20438 15.9593 1.04172 15.8327 0.930765C15.4687 0.611697 14.3854 0 11.4286 0C10.1108 0 8 0.763853 8 0.763853C8 0.763853 5.8892 0 4.57143 0C1.61465 0 0.531273 0.611697 0.16729 0.930765C0.0407154 1.04172 0 1.20438 0 1.3678V11.5257C0 12.3195 0.884934 12.8705 1.68876 12.648C2.5099 12.4207 3.54067 12.2137 4.57143 12.2137C5.19947 12.2137 6.34521 12.5211 7.25 12.798C7.44541 12.8578 7.62957 12.9162 7.79486 12.9698C7.85352 12.9888 7.9127 12.9986 7.97081 13C7.98057 13.0002 7.9903 13.0002 8 13C8.0097 13.0002 8.01943 13.0002 8.02919 13C8.08731 12.9986 8.14648 12.9888 8.20514 12.9698C8.37043 12.9162 8.55459 12.8578 8.75 12.798ZM8.75 11.2327V2.0922C8.77132 2.08511 8.79388 2.07766 8.81761 2.06989C9.01936 2.00376 9.30097 1.91563 9.61892 1.82794C10.2972 1.64089 10.9869 1.5 11.4286 1.5C13.157 1.5 14.0655 1.72394 14.5 1.88852V11.1454C13.6373 10.9194 12.5506 10.7137 11.4286 10.7137C10.8391 10.7137 10.1022 10.874 9.50922 11.0251C9.25406 11.0901 8.99716 11.161 8.75 11.2327Z" clip-rule="evenodd"/></svg>