<svg viewBox="0 0 24 24" xmlns="http://www.w3.org/2000/svg"><path d="M14 7.99998H15C15.2652 7.99998 15.5196 7.89462 15.7071 7.70709C15.8946 7.51955 16 7.26519 16 6.99998C16 6.73476 15.8946 6.48041 15.7071 6.29287C15.5196 6.10534 15.2652 5.99998 15 5.99998H14C13.7348 5.99998 13.4804 6.10534 13.2929 6.29287C13.1054 6.48041 13 6.73476 13 6.99998C13 7.26519 13.1054 7.51955 13.2929 7.70709C13.4804 7.89462 13.7348 7.99998 14 7.99998ZM14 12H15C15.2652 12 15.5196 11.8946 15.7071 11.7071C15.8946 11.5195 16 11.2652 16 11C16 10.7348 15.8946 10.4804 15.7071 10.2929C15.5196 10.1053 15.2652 9.99998 15 9.99998H14C13.7348 9.99998 13.4804 10.1053 13.2929 10.2929C13.1054 10.4804 13 10.7348 13 11C13 11.2652 13.1054 11.5195 13.2929 11.7071C13.4804 11.8946 13.7348 12 14 12ZM9 7.99998H10C10.2652 7.99998 10.5196 7.89462 10.7071 7.70709C10.8946 7.51955 11 7.26519 11 6.99998C11 6.73476 10.8946 6.48041 10.7071 6.29287C10.5196 6.10534 10.2652 5.99998 10 5.99998H9C8.73478 5.99998 8.48043 6.10534 8.29289 6.29287C8.10536 6.48041 8 6.73476 8 6.99998C8 7.26519 8.10536 7.51955 8.29289 7.70709C8.48043 7.89462 8.73478 7.99998 9 7.99998ZM9 12H10C10.2652 12 10.5196 11.8946 10.7071 11.7071C10.8946 11.5195 11 11.2652 11 11C11 10.7348 10.8946 10.4804 10.7071 10.2929C10.5196 10.1053 10.2652 9.99998 10 9.99998H9C8.73478 9.99998 8.48043 10.1053 8.29289 10.2929C8.10536 10.4804 8 10.7348 8 11C8 11.2652 8.10536 11.5195 8.29289 11.7071C8.48043 11.8946 8.73478 12 9 12ZM21 20H20C20 15 20 9.99993 20 4.99991C20 3.34309 18.6569 1.99995 17.0001 1.99993C13.6667 1.99987 10.3333 1.99986 6.9999 1.99992C5.34308 1.99996 4 3.34309 4 4.9999C4 9.99993 4 15 4 20H3C2.73478 20 2.48043 20.1053 2.29289 20.2929C2.10536 20.4804 2 20.7348 2 21C2 21.2652 2.10536 21.5196 2.29289 21.7071C2.48043 21.8946 2.73478 22 3 22H21C21.2652 22 21.5196 21.8946 21.7071 21.7071C21.8946 21.5196 22 21.2652 22 21C22 20.7348 21.8946 20.4804 21.7071 20.2929C21.5196 20.1053 21.2652 20 21 20ZM13 20H11V16H13V20ZM18 20H15V15C15 14.7348 14.8946 14.4804 14.7071 14.2929C14.5196 14.1053 14.2652 14 14 14H10C9.73478 14 9.48043 14.1053 9.29289 14.2929C9.10536 14.4804 9 14.7348 9 15V20H6V4.99998C6 4.44769 6.44772 3.99998 7 3.99998H17C17.5523 3.99998 18 4.44769 18 4.99998V20Z"/></svg>