<svg viewBox="0 0 24 24" xmlns="http://www.w3.org/2000/svg"><path fill-rule="evenodd" d="M17.72 6.49999H19C19.3982 6.49994 19.7924 6.57916 20.1597 6.73304C20.527 6.88692 20.86 7.11238 21.1392 7.39628C21.4184 7.68017 21.6384 8.01681 21.7862 8.38658C21.9339 8.75635 22.0066 9.15184 22 9.54999V17.55C22 18.3456 21.6839 19.1087 21.1213 19.6713C20.5587 20.2339 19.7956 20.55 19 20.55H5C4.20435 20.55 3.44129 20.2339 2.87868 19.6713C2.31607 19.1087 2 18.3456 2 17.55V9.54999C2 8.75434 2.31607 7.99128 2.87868 7.42867C3.44129 6.86606 4.20435 6.54999 5 6.54999H6.28L6.6 5.54999C6.79901 4.95388 7.1802 4.43532 7.68977 4.0675C8.19933 3.69967 8.81155 3.50117 9.44 3.49999H14.56C15.1824 3.49759 15.7901 3.68881 16.2989 4.04715C16.8077 4.40549 17.1926 4.91322 17.4 5.49999L17.72 6.49999ZM19.7071 18.2071C19.8946 18.0196 20 17.7652 20 17.5V9.49999C20 9.23478 19.8946 8.98042 19.7071 8.79289C19.5196 8.60535 19.2652 8.49999 19 8.49999H17C16.799 8.49037 16.6055 8.42032 16.445 8.299C16.2844 8.17768 16.1642 8.01074 16.1 7.81999L15.56 6.17999C15.4929 5.98137 15.3651 5.80886 15.1946 5.68683C15.0242 5.56481 14.8196 5.49945 14.61 5.49999H9.49C9.28036 5.49945 9.07584 5.56481 8.90537 5.68683C8.7349 5.80886 8.60709 5.98137 8.54 6.17999L8 7.81999C7.93042 8.02697 7.795 8.20549 7.61443 8.32828C7.43386 8.45107 7.21807 8.51137 7 8.49999H5C4.73478 8.49999 4.48043 8.60535 4.29289 8.79289C4.10536 8.98042 4 9.23478 4 9.49999V17.5C4 17.7652 4.10536 18.0196 4.29289 18.2071C4.48043 18.3946 4.73478 18.5 5 18.5H19C19.2652 18.5 19.5196 18.3946 19.7071 18.2071ZM14 13C14 14.1046 13.1046 15 12 15C10.8954 15 10 14.1046 10 13C10 11.8954 10.8954 11 12 11C13.1046 11 14 11.8954 14 13ZM16 13C16 15.2091 14.2091 17 12 17C9.79086 17 8 15.2091 8 13C8 10.7909 9.79086 9 12 9C14.2091 9 16 10.7909 16 13Z" clip-rule="evenodd"/></svg>