<svg viewBox="0 0 24 24" xmlns="http://www.w3.org/2000/svg"><path fill-rule="evenodd" d="M19.76 9.08007L18.4 5.05007C18.1926 4.4633 17.8077 3.95557 17.2989 3.59723C16.7901 3.23889 16.1824 3.04767 15.56 3.05007H8.44C7.81764 3.04767 7.20995 3.23889 6.7011 3.59723C6.19225 3.95557 5.80745 4.4633 5.6 5.05007L4.24 9.11007C3.60033 9.27758 3.03392 9.65174 2.62883 10.1744C2.22374 10.697 2.00268 11.3388 2 12.0001V16.0001C2.00174 16.619 2.19488 17.2223 2.55294 17.7271C2.911 18.232 3.41645 18.6138 4 18.8201V20.0001C4 20.2653 4.10536 20.5196 4.29289 20.7072C4.46284 20.8771 4.67188 21.0001 5.00311 21.0001H6C6.26522 21.0001 6.51957 20.8947 6.70711 20.7072C6.89464 20.5196 7 20.2653 7 20.0001V19.0001H17V20.0001C17 20.2653 17.1054 20.5196 17.2929 20.7072C17.4804 20.8947 17.7348 21.0001 18 21.0001L19 21.0001C19.2812 21.0001 19.5333 20.881 19.7071 20.7072C19.8946 20.5196 20 20.2653 20 20.0001V18.8201C20.5835 18.6138 21.089 18.232 21.4471 17.7271C21.8051 17.2223 21.9983 16.619 22 16.0001V12.0001C21.9973 11.3388 21.7763 10.697 21.3712 10.1744C20.9661 9.65174 20.3997 9.27758 19.76 9.11007V9.08007ZM7.49 5.68007C7.55709 5.48145 7.6849 5.30894 7.85537 5.18691C8.02584 5.06489 8.23036 4.99953 8.44 5.00007H15.56C15.7781 4.98869 15.9939 5.049 16.1744 5.17179C16.355 5.29457 16.4904 5.47309 16.56 5.68007L17.61 9.00007H6.39L7.49 5.68007ZM20 16.0001C20 16.2653 19.8946 16.5196 19.7071 16.7072C19.5196 16.8947 19.2652 17.0001 19 17.0001H5C4.73478 17.0001 4.48043 16.8947 4.29289 16.7072C4.10536 16.5196 4 16.2653 4 16.0001V12.0001C4 11.7349 4.10536 11.4805 4.29289 11.293C4.48043 11.1054 4.73478 11.0001 5 11.0001H19C19.2652 11.0001 19.5196 11.1054 19.7071 11.293C19.8946 11.4805 20 11.7349 20 12.0001V16.0001ZM9 14.0001C9 14.8285 8.32843 15.5001 7.5 15.5001C6.67157 15.5001 6 14.8285 6 14.0001C6 13.1716 6.67157 12.5001 7.5 12.5001C8.32843 12.5001 9 13.1716 9 14.0001ZM16.4954 15.5001C17.3238 15.5001 17.9954 14.8285 17.9954 14.0001C17.9954 13.1716 17.3238 12.5001 16.4954 12.5001C15.6669 12.5001 14.9954 13.1716 14.9954 14.0001C14.9954 14.8285 15.6669 15.5001 16.4954 15.5001Z" clip-rule="evenodd"/></svg>