<svg viewBox="0 0 24 24" xmlns="http://www.w3.org/2000/svg"><path fill-rule="evenodd" d="M6.4443 3.6853C8.08879 2.58649 10.0222 2 12 2C13.3132 2 14.6136 2.25866 15.8268 2.7612C17.0401 3.26375 18.1425 4.00035 19.0711 4.92893C19.9997 5.85752 20.7363 6.95991 21.2388 8.17317C21.7413 9.38642 22 10.6868 22 12C22 13.9778 21.4135 15.9112 20.3147 17.5557C19.2159 19.2002 17.6541 20.4819 15.8268 21.2388C13.9996 21.9957 11.9889 22.1937 10.0491 21.8079C8.10929 21.422 6.32746 20.4696 4.92894 19.0711C3.53041 17.6725 2.578 15.8907 2.19215 13.9509C1.8063 12.0111 2.00433 10.0004 2.76121 8.17317C3.51809 6.3459 4.79981 4.78412 6.4443 3.6853ZM7.55544 18.6518C8.87104 19.5308 10.4178 20 12 20C14.1217 20 16.1566 19.1571 17.6569 17.6569C19.1572 16.1566 20 14.1217 20 12C20 10.4177 19.5308 8.87103 18.6518 7.55544C17.7727 6.23984 16.5233 5.21447 15.0615 4.60896C13.5997 4.00346 11.9911 3.84504 10.4393 4.15372C8.88743 4.4624 7.46197 5.22433 6.34315 6.34315C5.22433 7.46197 4.4624 8.88743 4.15372 10.4393C3.84504 11.9911 4.00347 13.5997 4.60897 15.0615C5.21447 16.5233 6.23985 17.7727 7.55544 18.6518ZM14.9993 8.9908L10.7093 13.2908L9.05935 11.6408C8.9697 11.5361 8.85938 11.4511 8.73532 11.3911C8.61125 11.3311 8.47612 11.2973 8.3384 11.292C8.20068 11.2867 8.06335 11.3099 7.93503 11.3602C7.8067 11.4104 7.69015 11.4867 7.5927 11.5842C7.49524 11.6816 7.41899 11.7982 7.36871 11.9265C7.31844 12.0548 7.29523 12.1921 7.30055 12.3299C7.30587 12.4676 7.3396 12.6027 7.39962 12.7268C7.45965 12.8508 7.54467 12.9612 7.64935 13.0508L9.99935 15.4108C10.0928 15.5035 10.2036 15.5768 10.3254 15.6266C10.4473 15.6763 10.5777 15.7016 10.7093 15.7008C10.9717 15.6997 11.2231 15.5955 11.4093 15.4108L16.4093 10.4108C16.5031 10.3178 16.5775 10.2072 16.6282 10.0854C16.679 9.96352 16.7051 9.83282 16.7051 9.7008C16.7051 9.56879 16.679 9.43809 16.6282 9.31623C16.5775 9.19437 16.5031 9.08377 16.4093 8.9908C16.222 8.80455 15.9685 8.70001 15.7043 8.70001C15.4402 8.70001 15.1867 8.80455 14.9993 8.9908Z" clip-rule="evenodd"/></svg>