<svg viewBox="0 0 24 24" xmlns="http://www.w3.org/2000/svg"><path fill-rule="evenodd" d="M8.17303 2.7612C9.38629 2.25866 10.6866 2 11.9999 2C14.652 2 17.1956 3.05357 19.0709 4.92893C20.9463 6.8043 21.9999 9.34784 21.9999 12C21.9999 14.6522 20.9463 17.1957 19.0709 19.0711C17.1956 20.9464 14.652 22 11.9999 22H2.99987C2.80187 22.0083 2.60586 21.9577 2.43671 21.8544C2.26757 21.7511 2.13292 21.5999 2.04987 21.42C1.97329 21.2379 1.95236 21.0372 1.98974 20.8432C2.02711 20.6492 2.12111 20.4706 2.25987 20.33L4.25987 18.33C2.79066 16.5485 1.99112 14.3091 1.99987 12C1.99987 9.34784 3.05343 6.8043 4.9288 4.92893C5.85738 4.00035 6.95978 3.26375 8.17303 2.7612ZM5.40987 20H11.9999C13.8506 19.9985 15.6436 19.3554 17.0734 18.1802C18.5032 17.005 19.4813 15.3705 19.841 13.555C20.2007 11.7395 19.9199 9.85551 19.0463 8.22389C18.1727 6.59227 16.7604 5.31402 15.0501 4.60691C13.3397 3.8998 11.4371 3.80759 9.66638 4.34597C7.89566 4.88436 6.36638 6.02004 5.33909 7.55952C4.31181 9.09901 3.85007 10.947 4.03256 12.7888C4.21504 14.6305 5.03045 16.352 6.33987 17.66C6.52612 17.8474 6.63066 18.1008 6.63066 18.365C6.63066 18.6292 6.52612 18.8826 6.33987 19.07L5.40987 20ZM8 13.25C8.69036 13.25 9.25 12.6904 9.25 12C9.25 11.3096 8.69036 10.75 8 10.75C7.30964 10.75 6.75 11.3096 6.75 12C6.75 12.6904 7.30964 13.25 8 13.25ZM12 13.25C12.6904 13.25 13.25 12.6904 13.25 12C13.25 11.3096 12.6904 10.75 12 10.75C11.3096 10.75 10.75 11.3096 10.75 12C10.75 12.6904 11.3096 13.25 12 13.25ZM17.25 12C17.25 12.6904 16.6904 13.25 16 13.25C15.3096 13.25 14.75 12.6904 14.75 12C14.75 11.3096 15.3096 10.75 16 10.75C16.6904 10.75 17.25 11.3096 17.25 12Z" clip-rule="evenodd"/></svg>