<svg viewBox="0 0 24 24" xmlns="http://www.w3.org/2000/svg"><path d="M18.2997 5.71C17.9097 5.32 17.2797 5.32 16.8897 5.71L11.9997 10.59L7.10973 5.7C6.71973 5.31 6.08973 5.31 5.69973 5.7C5.30973 6.09 5.30973 6.72 5.69973 7.11L10.5897 12L5.69973 16.89C5.30973 17.28 5.30973 17.91 5.69973 18.3C6.08973 18.69 6.71973 18.69 7.10973 18.3L11.9997 13.41L16.8897 18.3C17.2797 18.69 17.9097 18.69 18.2997 18.3C18.6897 17.91 18.6897 17.28 18.2997 16.89L13.4097 12L18.2997 7.11C18.6797 6.73 18.6797 6.09 18.2997 5.71Z"/></svg>