<svg viewBox="0 0 24 24" xmlns="http://www.w3.org/2000/svg"><path d="M15.7319 7.2958C15.639 7.20207 15.5284 7.12768 15.4065 7.07691C15.2846 7.02614 15.1539 7 15.0219 7C14.8899 7 14.7592 7.02614 14.6373 7.07691C14.5155 7.12768 14.4049 7.20207 14.3119 7.2958L6.86192 14.7558L3.73192 11.6158C3.6354 11.5226 3.52146 11.4492 3.3966 11.4C3.27175 11.3508 3.13843 11.3267 3.00424 11.329C2.87006 11.3314 2.73765 11.3601 2.61458 11.4136C2.4915 11.4671 2.38016 11.5443 2.28692 11.6408C2.19368 11.7373 2.12037 11.8513 2.07117 11.9761C2.02196 12.101 1.99783 12.2343 2.00015 12.3685C2.00247 12.5027 2.0312 12.6351 2.0847 12.7581C2.13819 12.8812 2.2154 12.9926 2.31192 13.0858L6.15192 16.9258C6.24489 17.0195 6.35549 17.0939 6.47735 17.1447C6.59921 17.1955 6.72991 17.2216 6.86192 17.2216C6.99393 17.2216 7.12464 17.1955 7.2465 17.1447C7.36836 17.0939 7.47896 17.0195 7.57192 16.9258L15.7319 8.7658C15.8334 8.67216 15.9144 8.5585 15.9698 8.432C16.0252 8.30551 16.0539 8.1689 16.0539 8.0308C16.0539 7.8927 16.0252 7.75609 15.9698 7.62959C15.9144 7.50309 15.8334 7.38944 15.7319 7.2958V7.2958Z"/><path fill-rule="evenodd" d="M21.3562 7.07691C21.4781 7.12768 21.5887 7.20207 21.6816 7.2958C21.7831 7.38944 21.8641 7.50309 21.9196 7.62959C21.975 7.75609 22.0036 7.8927 22.0036 8.0308C22.0036 8.1689 21.975 8.30551 21.9196 8.432C21.8641 8.5585 21.7831 8.67216 21.6816 8.7658L13.5216 16.9258C13.4287 17.0195 13.3181 17.0939 13.1962 17.1447C13.0744 17.1955 12.9436 17.2216 12.8116 17.2216C12.6796 17.2216 12.5489 17.1955 12.4271 17.1447C12.3052 17.0939 12.1946 17.0195 12.1016 16.9258L10.543 15.3671L11.9843 13.9258L12.8116 14.7558L20.2616 7.2958C20.3546 7.20207 20.4652 7.12768 20.5871 7.07691C20.7089 7.02614 20.8396 7 20.9716 7C21.1036 7 21.2343 7.02614 21.3562 7.07691Z" clip-rule="evenodd"/></svg>