<svg viewBox="0 0 24 24" xmlns="http://www.w3.org/2000/svg"><path d="M8.4678 8.39454L8.46555 8.39637L8.46341 8.39845L8.4678 8.39454ZM18.4219 8.20801C18.3523 8.14096 18.2751 8.08229 18.1919 8.0332C18.0741 7.96387 17.9433 7.91943 17.8076 7.90264C17.672 7.88586 17.5343 7.89708 17.4031 7.93562C17.272 7.97415 17.1501 8.03918 17.0451 8.12668C16.9401 8.21418 16.8541 8.3223 16.7925 8.44434C16.448 9.12303 15.9729 9.72703 15.3945 10.2217C15.483 9.72329 15.5276 9.2181 15.5278 8.71191C15.5297 7.17201 15.1234 5.65912 14.3505 4.32728C13.5775 2.99543 12.4654 1.8922 11.1274 1.12991C10.98 1.04636 10.8138 1.00162 10.6444 0.999899C10.475 0.998175 10.3079 1.03952 10.1588 1.12006C10.0098 1.20059 9.88362 1.31768 9.7922 1.46032C9.70078 1.60297 9.6471 1.76651 9.6362 1.93558C9.58024 2.88376 9.33236 3.8107 8.90759 4.66025C8.48282 5.5098 7.88999 6.26427 7.16503 6.87794L6.93456 7.06544C6.17648 7.57553 5.50546 8.20434 4.94726 8.92774C4.07958 10.0208 3.47851 11.3011 3.19172 12.6669C2.90493 14.0328 2.94031 15.4466 3.29506 16.7964C3.6498 18.1462 4.31415 19.3948 5.23543 20.4431C6.1567 21.4914 7.30956 22.3107 8.60257 22.836C8.75439 22.898 8.91914 22.9217 9.08229 22.905C9.24545 22.8883 9.40198 22.8318 9.5381 22.7403C9.67422 22.6488 9.78573 22.5252 9.8628 22.3805C9.93987 22.2357 9.98013 22.0742 9.98003 21.9102C9.97932 21.8041 9.96252 21.6987 9.93023 21.5977C9.7065 20.7567 9.64208 19.8813 9.74028 19.0166C10.6865 20.8013 12.2054 22.216 14.0528 23.0332C14.2783 23.1341 14.5332 23.1477 14.7681 23.0713C16.2277 22.6002 17.5425 21.7637 18.5878 20.6414C19.633 19.519 20.3739 18.148 20.74 16.6586C21.1061 15.1692 21.0853 13.611 20.6796 12.1319C20.2739 10.6529 19.4967 9.30212 18.4219 8.20801ZM14.5171 21.0391C13.6454 20.5973 12.8765 19.977 12.2603 19.2185C11.6441 18.4601 11.1944 17.5804 10.9405 16.6367C10.8629 16.319 10.8029 15.9972 10.7608 15.6729C10.7322 15.4663 10.6398 15.2739 10.4965 15.1224C10.3532 14.9709 10.1661 14.8681 9.96146 14.8281C9.89841 14.8157 9.8343 14.8095 9.77003 14.8096C9.59427 14.8095 9.42161 14.8558 9.26944 14.9438C9.11728 15.0317 8.991 15.1582 8.90333 15.3106C8.0736 16.7417 7.65633 18.3746 7.69776 20.0284C6.968 19.461 6.35811 18.7544 5.90344 17.9495C5.44876 17.1447 5.15835 16.2576 5.04903 15.3397C4.93971 14.4219 5.01366 13.4914 5.26658 12.6023C5.51951 11.7132 5.94639 10.8831 6.52247 10.1602C6.95989 9.59203 7.48756 9.09949 8.08447 8.70219C8.11032 8.68551 8.1351 8.66725 8.15869 8.6475C8.15869 8.6475 8.45538 8.40202 8.46552 8.3964C9.89022 7.19137 10.9035 5.57192 11.3643 3.76371C12.4538 4.77095 13.1804 6.10974 13.431 7.57222C13.6817 9.0347 13.4425 10.539 12.7505 11.8516C12.6591 12.0268 12.6216 12.2251 12.6427 12.4215C12.6639 12.6179 12.7427 12.8037 12.8693 12.9554C12.9959 13.1071 13.1646 13.2179 13.3541 13.2738C13.5436 13.3297 13.7454 13.3282 13.9341 13.2696C15.4659 12.7894 16.8138 11.8515 17.7964 10.5821C18.3869 11.4544 18.773 12.4487 18.9259 13.491C19.0787 14.5332 18.9944 15.5965 18.6792 16.6017C18.364 17.6068 17.826 18.5278 17.1054 19.2961C16.3847 20.0645 15.5 20.6602 14.5171 21.0391L14.5171 21.0391Z"/></svg>