<svg viewBox="0 0 24 24" xmlns="http://www.w3.org/2000/svg"><path d="M3.94922 6.16469C5.14499 4.49648 6.83332 3.22627 8.79422 2.54482C10.6643 1.9009 12.6833 1.82599 14.5959 2.32954C16.5086 2.8331 18.2289 3.8925 19.5395 5.3738C20.85 6.85509 21.6919 8.69174 21.9586 10.6515C22.2253 12.6112 21.9049 14.6061 21.0378 16.3837C20.1708 18.1614 18.7962 19.642 17.0876 20.6384C15.3791 21.6347 13.4135 22.1021 11.4394 21.9813C9.46529 21.8606 7.57131 21.1572 5.99696 19.96C4.42262 18.7629 3.23863 17.1257 2.59472 15.2557C2.50837 15.0049 2.52518 14.7301 2.64144 14.4917C2.75771 14.2534 2.9639 14.0709 3.21467 13.9846C3.46544 13.8982 3.74023 13.9151 3.97861 14.0313C4.21698 14.1476 4.39941 14.3538 4.48576 14.6045C5.0844 16.3653 6.27778 17.8625 7.86071 18.8386C9.44363 19.8148 11.3172 20.209 13.1593 19.9535C15.0014 19.6979 16.6969 18.8086 17.9543 17.4383C19.2117 16.0681 19.9524 14.3026 20.0491 12.4454C20.1458 10.5882 19.5925 8.75527 18.4842 7.26185C17.3759 5.76843 15.7819 4.70779 13.9764 4.26229C12.1708 3.81679 10.2664 4.01426 8.59064 4.82076C7.33219 5.42642 6.26173 6.34712 5.47701 7.48347L6.58749 7.28585C7.13124 7.18909 7.65047 7.55144 7.74723 8.09519C7.84399 8.63893 7.48164 9.15816 6.9379 9.25492L3.84824 9.80473C3.83204 9.81128 3.81563 9.81742 3.79903 9.82314L3.80026 9.81327L3.12442 9.93354C2.83313 9.98538 2.53383 9.90556 2.30704 9.71556C2.08024 9.52556 1.94922 9.24487 1.94922 8.94901V5.04691C1.94922 4.49462 2.39693 4.04691 2.94922 4.04691C3.5015 4.04691 3.94922 4.49462 3.94922 5.04691V6.16469Z"/><path d="M15.146 12.623L13.0479 11.4121V6.98926C13.0479 6.72404 12.9425 6.46969 12.755 6.28215C12.5674 6.09462 12.3131 5.98926 12.0479 5.98926C11.7826 5.98926 11.5283 6.09462 11.3407 6.28215C11.1532 6.46969 11.0479 6.72404 11.0479 6.98926V11.9893C11.0478 12.1648 11.094 12.3373 11.1818 12.4894C11.2695 12.6414 11.3958 12.7677 11.5479 12.8555L14.146 14.3555C14.2597 14.4212 14.3853 14.4639 14.5156 14.4811C14.6459 14.4983 14.7782 14.4896 14.9051 14.4556C15.0321 14.4217 15.151 14.363 15.2553 14.283C15.3595 14.203 15.447 14.1033 15.5126 13.9895C15.5783 13.8757 15.6209 13.7501 15.6381 13.6198C15.6552 13.4896 15.6465 13.3572 15.6124 13.2303C15.5784 13.1034 15.5197 12.9845 15.4396 12.8803C15.3596 12.7761 15.2598 12.6887 15.146 12.623Z"/></svg>