<svg viewBox="0 0 24 24" xmlns="http://www.w3.org/2000/svg"><path fill-rule="evenodd" d="M12 15C13.0609 15 14.0783 14.5786 14.8284 13.8284C15.5786 13.0783 16 12.0609 16 11V6C16 4.93913 15.5786 3.92172 14.8284 3.17157C14.0783 2.42143 13.0609 2 12 2C10.9391 2 9.92172 2.42143 9.17157 3.17157C8.42143 3.92172 8 4.93913 8 6V11C8 12.0609 8.42143 13.0783 9.17157 13.8284C9.92172 14.5786 10.9391 15 12 15ZM10 6C10 5.46957 10.2107 4.96086 10.5858 4.58579C10.9609 4.21071 11.4696 4 12 4C12.5304 4 13.0391 4.21071 13.4142 4.58579C13.7893 4.96086 14 5.46957 14 6V11C14 11.5304 13.7893 12.0391 13.4142 12.4142C13.0391 12.7893 12.5304 13 12 13C11.4696 13 10.9609 12.7893 10.5858 12.4142C10.2107 12.0391 10 11.5304 10 11V6Z" clip-rule="evenodd"/><path d="M20 11C20 10.7348 19.8946 10.4804 19.7071 10.2929C19.5196 10.1054 19.2652 10 19 10C18.7348 10 18.4804 10.1054 18.2929 10.2929C18.1054 10.4804 18 10.7348 18 11C18 12.5913 17.3679 14.1174 16.2426 15.2426C15.1174 16.3679 13.5913 17 12 17C10.4087 17 8.88258 16.3679 7.75736 15.2426C6.63214 14.1174 6 12.5913 6 11C6 10.7348 5.89464 10.4804 5.70711 10.2929C5.51957 10.1054 5.26522 10 5 10C4.73478 10 4.48043 10.1054 4.29289 10.2929C4.10536 10.4804 4 10.7348 4 11C4.00177 12.9473 4.71372 14.8271 6.0024 16.287C7.29107 17.7469 9.06798 18.6866 11 18.93V21C11 21.5523 11.4477 22 12 22C12.5523 22 13 21.5523 13 21V18.93C14.932 18.6866 16.7089 17.7469 17.9976 16.287C19.2863 14.8271 19.9982 12.9473 20 11Z"/></svg>