<svg viewBox="0 0 24 24" xmlns="http://www.w3.org/2000/svg"><path fill-rule="evenodd" d="M9 2H19C20.6569 2 22 3.34315 22 5V15C22 16.6569 20.6569 18 19 18H18V19C18 20.6569 16.6569 22 15 22H5C3.34314 22 2 20.6569 2 19V9C2 7.34314 3.34315 6 5 6H6V5C6 3.34314 7.34315 2 9 2ZM18 16H16H9C8.44771 16 8 15.5523 8 15V8V6V5C8 4.44772 8.44772 4 9 4H19C19.5523 4 20 4.44772 20 5V15C20 15.5523 19.5523 16 19 16H18ZM6 15V8H5C4.44772 8 4 8.44771 4 9V19C4 19.5523 4.44772 20 5 20H15C15.5523 20 16 19.5523 16 19V18H9C7.34314 18 6 16.6569 6 15ZM16.9993 6.9908L12.7093 11.2908L11.0593 9.6408C10.9697 9.53612 10.8594 9.4511 10.7353 9.39108C10.6113 9.33106 10.4761 9.29733 10.3384 9.29201C10.2007 9.28669 10.0634 9.30989 9.93503 9.36017C9.8067 9.41044 9.69015 9.4867 9.5927 9.58415C9.49524 9.68161 9.41899 9.79816 9.36871 9.92648C9.31844 10.0548 9.29523 10.1921 9.30055 10.3299C9.30587 10.4676 9.3396 10.6027 9.39962 10.7268C9.45965 10.8508 9.54467 10.9612 9.64935 11.0508L11.9993 13.4108C12.0928 13.5035 12.2036 13.5768 12.3254 13.6266C12.4473 13.6763 12.5777 13.7016 12.7093 13.7008C12.9717 13.6997 13.2231 13.5955 13.4093 13.4108L18.4093 8.4108C18.5031 8.31784 18.5775 8.20724 18.6282 8.08538C18.679 7.96352 18.7051 7.83282 18.7051 7.7008C18.7051 7.56879 18.679 7.43809 18.6282 7.31623C18.5775 7.19437 18.5031 7.08377 18.4093 6.9908C18.222 6.80455 17.9685 6.70001 17.7043 6.70001C17.4402 6.70001 17.1867 6.80455 16.9993 6.9908Z" clip-rule="evenodd"/></svg>