<svg viewBox="0 0 24 24" xmlns="http://www.w3.org/2000/svg"><path fill-rule="evenodd" d="M13 3V3.07089C16.3923 3.55612 19 6.47353 19 10V13.446C19 13.8085 19.0985 14.1642 19.285 14.475L21.0913 17.4855C21.4912 18.152 21.0111 19 20.2338 19H15C15 20.6569 13.6569 22 12 22C10.3431 22 9 20.6569 9 19H3.76619C2.9889 19 2.50879 18.152 2.9087 17.4855L4.71499 14.475C4.90149 14.1642 5 13.8085 5 13.446V10C5 6.47353 7.60771 3.55612 11 3.07089V3C11 2.44772 11.4477 2 12 2C12.5523 2 13 2.44772 13 3ZM11 19C11 19.5523 11.4477 20 12 20C12.5523 20 13 19.5523 13 19H11ZM7 10V13.446C7 14.171 6.80297 14.8824 6.42997 15.504L5.53238 17H18.4676L17.57 15.504C17.197 14.8824 17 14.171 17 13.446V10C17 7.23858 14.7614 5 12 5C9.23858 5 7 7.23858 7 10Z" clip-rule="evenodd"/></svg>