<svg viewBox="0 0 24 24" xmlns="http://www.w3.org/2000/svg"><path d="M18.0797 12.42L11.8997 18.61C11.0895 19.33 10.0348 19.7133 8.95139 19.6814C7.86797 19.6495 6.83767 19.2049 6.07124 18.4384C5.30482 17.672 4.86018 16.6417 4.82829 15.5583C4.7964 14.4749 5.17966 13.4202 5.89967 12.61L13.8997 4.61C14.3773 4.1563 15.0109 3.90333 15.6697 3.90333C16.3284 3.90333 16.962 4.1563 17.4397 4.61C17.905 5.08159 18.1659 5.71747 18.1659 6.38C18.1659 7.04253 17.905 7.67841 17.4397 8.15L10.5397 15.04C10.4714 15.1135 10.3893 15.1729 10.298 15.2147C10.2068 15.2565 10.1082 15.28 10.008 15.2837C9.90767 15.2874 9.80763 15.2713 9.71356 15.2364C9.61948 15.2014 9.53321 15.1483 9.45967 15.08C9.38613 15.0117 9.32676 14.9296 9.28495 14.8384C9.24314 14.7471 9.21971 14.6486 9.216 14.5483C9.21228 14.448 9.22836 14.348 9.2633 14.2539C9.29825 14.1598 9.35138 14.0735 9.41967 14L14.5497 8.88C14.738 8.6917 14.8438 8.4363 14.8438 8.17C14.8438 7.9037 14.738 7.6483 14.5497 7.46C14.3614 7.2717 14.106 7.16591 13.8397 7.16591C13.5734 7.16591 13.318 7.2717 13.1297 7.46L7.99967 12.6C7.74298 12.8547 7.53924 13.1577 7.4002 13.4915C7.26117 13.8253 7.18959 14.1834 7.18959 14.545C7.18959 14.9066 7.26117 15.2647 7.4002 15.5985C7.53924 15.9323 7.74298 16.2353 7.99967 16.49C8.52404 16.9895 9.22048 17.2681 9.94467 17.2681C10.6689 17.2681 11.3653 16.9895 11.8897 16.49L18.7797 9.59C19.5746 8.73695 20.0073 7.60867 19.9867 6.44286C19.9662 5.27706 19.4939 4.16475 18.6694 3.34027C17.8449 2.51579 16.7326 2.04352 15.5668 2.02295C14.401 2.00238 13.2727 2.43512 12.4197 3.23L4.41967 11.23C3.34087 12.4248 2.7647 13.9899 2.8112 15.599C2.85771 17.2081 3.5233 18.7372 4.66931 19.8678C5.81532 20.9983 7.35335 21.6431 8.96296 21.6677C10.5726 21.6923 12.1296 21.0949 13.3097 20L19.4997 13.82C19.5929 13.7268 19.6669 13.6161 19.7173 13.4942C19.7678 13.3724 19.7938 13.2419 19.7938 13.11C19.7938 12.9781 19.7678 12.8476 19.7173 12.7257C19.6669 12.6039 19.5929 12.4932 19.4997 12.4C19.4064 12.3068 19.2957 12.2328 19.1739 12.1823C19.0521 12.1319 18.9215 12.1059 18.7897 12.1059C18.6578 12.1059 18.5272 12.1319 18.4054 12.1823C18.2836 12.2328 18.1729 12.3068 18.0797 12.4V12.42Z"/></svg>