<svg viewBox="0 0 24 24" xmlns="http://www.w3.org/2000/svg"><path d="M10.0004 8.00001H16.0004C16.2656 8.00001 16.52 7.89466 16.7075 7.70712C16.8951 7.51958 17.0004 7.26523 17.0004 7.00001C17.0004 6.7348 16.8951 6.48044 16.7075 6.29291C16.52 6.10537 16.2656 6.00001 16.0004 6.00001H10.0004C9.7352 6.00001 9.48085 6.10537 9.29331 6.29291C9.10578 6.48044 9.00042 6.7348 9.00042 7.00001C9.00042 7.26523 9.10578 7.51958 9.29331 7.70712C9.48085 7.89466 9.7352 8.00001 10.0004 8.00001ZM8.00042 12H16.0004C16.2656 12 16.52 11.8947 16.7075 11.7071C16.8951 11.5196 17.0004 11.2652 17.0004 11C17.0004 10.7348 16.8951 10.4804 16.7075 10.2929C16.52 10.1054 16.2656 10 16.0004 10H8.00042C7.7352 10 7.48085 10.1054 7.29331 10.2929C7.10578 10.4804 7.00042 10.7348 7.00042 11C7.00042 11.2652 7.10578 11.5196 7.29331 11.7071C7.48085 11.8947 7.7352 12 8.00042 12ZM8.00042 16H16.0004C16.2656 16 16.52 15.8947 16.7075 15.7071C16.8951 15.5196 17.0004 15.2652 17.0004 15C17.0004 14.7348 16.8951 14.4804 16.7075 14.2929C16.52 14.1054 16.2656 14 16.0004 14H8.00042C7.7352 14 7.48085 14.1054 7.29331 14.2929C7.10578 14.4804 7.00042 14.7348 7.00042 15C7.00042 15.2652 7.10578 15.5196 7.29331 15.7071C7.48085 15.8947 7.7352 16 8.00042 16ZM6.00072 2.00001C4.34359 2.00001 3.00034 3.34359 3.00054 5.00073C3.00121 10.3338 3.00042 15.6669 3.00042 21C3.00042 21.1857 3.05213 21.3678 3.14977 21.5257C3.2474 21.6837 3.3871 21.8114 3.55321 21.8944C3.71931 21.9775 3.90526 22.0127 4.09022 21.996C4.27519 21.9793 4.45185 21.9114 4.60042 21.8L6.67042 20.25L8.73042 21.8C8.90352 21.9298 9.11405 22 9.33042 22C9.54679 22 9.75732 21.9298 9.93042 21.8L12.0004 20.25L14.0704 21.8C14.2435 21.9298 14.454 22 14.6704 22C14.8868 22 15.0973 21.9298 15.2704 21.8L17.3304 20.25L19.4004 21.8C19.5497 21.9113 19.7271 21.9787 19.9126 21.9946C20.0981 22.0105 20.2844 21.9742 20.4504 21.89C20.6153 21.8069 20.754 21.6798 20.8511 21.5227C20.9482 21.3656 20.9999 21.1847 21.0004 21C21.0004 15.6667 21.0001 10.3334 21 5.00003C21 3.34316 19.6568 2.00001 18 2.00002C14.0002 2.00003 10.0005 2.00002 6.00072 2.00001ZM19.0004 19L17.9304 18.2C17.7573 18.0702 17.5468 18 17.3304 18C17.114 18 16.9035 18.0702 16.7304 18.2L14.6704 19.75L12.6004 18.2C12.4273 18.0702 12.2168 18 12.0004 18C11.784 18 11.5735 18.0702 11.4004 18.2L9.33042 19.75L7.27042 18.2C7.09732 18.0702 6.88679 18 6.67042 18C6.45405 18 6.24352 18.0702 6.07042 18.2L5.00042 19V5.00001C5.00042 4.44773 5.44813 4.00001 6.00042 4.00001H18.0004C18.5527 4.00001 19.0004 4.44773 19.0004 5.00001V19Z"/></svg>