<svg viewBox="0 0 24 24" xmlns="http://www.w3.org/2000/svg"><path d="M17.6503 6.34999C16.0203 4.71999 13.7103 3.77999 11.1703 4.03999C7.50027 4.40999 4.48027 7.38999 4.07027 11.06C3.52027 15.91 7.27027 20 12.0003 20C15.1903 20 17.9303 18.13 19.2103 15.44C19.5303 14.77 19.0503 14 18.3103 14C17.9403 14 17.5903 14.2 17.4303 14.53C16.3003 16.96 13.5903 18.5 10.6303 17.84C8.41026 17.35 6.62027 15.54 6.15027 13.32C5.31027 9.43999 8.26027 5.99999 12.0003 5.99999C13.6603 5.99999 15.1403 6.68999 16.2203 7.77999L14.7103 9.28999C14.0803 9.91999 14.5203 11 15.4103 11H19.0003C19.5503 11 20.0003 10.55 20.0003 9.99999V6.40999C20.0003 5.51999 18.9203 5.06999 18.2903 5.69999L17.6503 6.34999Z"/></svg>