<svg viewBox="0 0 24 24" xmlns="http://www.w3.org/2000/svg"><path d="M22.0005 9.66999C21.9373 9.48708 21.8224 9.32642 21.6698 9.20749C21.5171 9.08857 21.3333 9.01649 21.1405 8.99999L15.4505 8.16999L12.9005 2.99999C12.8186 2.83092 12.6907 2.68833 12.5316 2.58857C12.3724 2.4888 12.1883 2.43588 12.0005 2.43588C11.8126 2.43588 11.6286 2.4888 11.4694 2.58857C11.3102 2.68833 11.1824 2.83092 11.1005 2.99999L8.55047 8.15999L2.86047 8.99999C2.67539 9.0263 2.50139 9.10396 2.35822 9.22415C2.21504 9.34435 2.10843 9.50227 2.05047 9.67999C1.99741 9.85367 1.99265 10.0385 2.03669 10.2147C2.08074 10.3909 2.17192 10.5517 2.30047 10.68L6.43047 14.68L5.43047 20.36C5.39477 20.5475 5.41346 20.7412 5.48434 20.9184C5.55522 21.0956 5.67532 21.2489 5.83047 21.36C5.98168 21.4681 6.16004 21.5319 6.34551 21.5443C6.53099 21.5566 6.71624 21.5171 6.88047 21.43L12.0005 18.76L17.1005 21.44C17.2408 21.5192 17.3993 21.5605 17.5605 21.56C17.7723 21.5607 17.9789 21.4942 18.1505 21.37C18.3056 21.2589 18.4257 21.1056 18.4966 20.9284C18.5675 20.7512 18.5862 20.5575 18.5505 20.37L17.5505 14.69L21.6805 10.69C21.8248 10.5677 21.9316 10.4069 21.9882 10.2263C22.0448 10.0458 22.0491 9.85287 22.0005 9.66999ZM15.8505 13.67C15.7332 13.7834 15.6454 13.9238 15.5949 14.079C15.5444 14.2341 15.5325 14.3992 15.5605 14.56L16.2805 18.75L12.5205 16.75C12.3758 16.673 12.2144 16.6327 12.0505 16.6327C11.8866 16.6327 11.7251 16.673 11.5805 16.75L7.82047 18.75L8.54047 14.56C8.5684 14.3992 8.55658 14.2341 8.50603 14.079C8.45548 13.9238 8.36774 13.7834 8.25047 13.67L5.25047 10.67L9.46047 10.06C9.62246 10.0375 9.77646 9.97553 9.90896 9.87964C10.0415 9.78376 10.1484 9.65683 10.2205 9.50999L12.0005 5.69999L13.8805 9.51999C13.9525 9.66683 14.0595 9.79376 14.192 9.88964C14.3245 9.98553 14.4785 10.0475 14.6405 10.07L18.8505 10.68L15.8505 13.67Z"/></svg>