<svg viewBox="0 0 24 24" xmlns="http://www.w3.org/2000/svg"><path d="M4 11V19H8V11H4ZM10 5V19H14V5H10ZM16 13V19H20V13H16ZM20 21H4C3.45 21 2.97933 20.8043 2.588 20.413C2.196 20.021 2 19.55 2 19V11C2 10.45 2.196 9.979 2.588 9.587C2.97933 9.19567 3.45 9 4 9H8V5C8 4.45 8.196 3.979 8.588 3.587C8.97933 3.19567 9.45 3 10 3H14C14.55 3 15.021 3.19567 15.413 3.587C15.8043 3.979 16 4.45 16 5V11H20C20.55 11 21.021 11.1957 21.413 11.587C21.8043 11.979 22 12.45 22 13V19C22 19.55 21.8043 20.021 21.413 20.413C21.021 20.8043 20.55 21 20 21Z"/></svg>