<svg viewBox="0 0 24 24" xmlns="http://www.w3.org/2000/svg"><path d="M7.50002 5.99999C7.20334 5.99999 6.91333 6.08796 6.66666 6.25278C6.41999 6.4176 6.22773 6.65187 6.1142 6.92596C6.00067 7.20005 5.97096 7.50165 6.02884 7.79262C6.08672 8.08359 6.22958 8.35087 6.43936 8.56065C6.64914 8.77043 6.91641 8.91329 7.20738 8.97116C7.49835 9.02904 7.79995 8.99934 8.07404 8.88581C8.34813 8.77227 8.5824 8.58001 8.74722 8.33334C8.91204 8.08667 9.00002 7.79666 9.00002 7.49999C9.00002 7.10216 8.84198 6.72063 8.56068 6.43933C8.27937 6.15802 7.89784 5.99999 7.50002 5.99999ZM21.12 10.71L12.71 2.28999C12.6166 2.1973 12.5058 2.12398 12.3839 2.07421C12.2621 2.02445 12.1316 1.99923 12 1.99999H3.00002C2.7348 1.99999 2.48045 2.10534 2.29291 2.29288C2.10537 2.48042 2.00002 2.73477 2.00002 2.99999V12C1.99926 12.1316 2.02448 12.2621 2.07425 12.3839C2.12401 12.5057 2.19734 12.6165 2.29002 12.71L10.71 21.12C11.2725 21.6818 12.035 21.9973 12.83 21.9973C13.625 21.9973 14.3875 21.6818 14.95 21.12L21.12 15C21.6818 14.4375 21.9974 13.675 21.9974 12.88C21.9974 12.085 21.6818 11.3225 21.12 10.76V10.71ZM19.71 13.53L13.53 19.7C13.3427 19.8862 13.0892 19.9908 12.825 19.9908C12.5608 19.9908 12.3074 19.8862 12.12 19.7L4.00002 11.59V3.99999H11.59L19.71 12.12C19.8027 12.2134 19.876 12.3242 19.9258 12.4461C19.9756 12.5679 20.0008 12.6984 20 12.83C19.9989 13.0923 19.8948 13.3437 19.71 13.53Z"/></svg>