<svg viewBox="0 0 24 24" xmlns="http://www.w3.org/2000/svg"><path d="M17 9.00001H9V7.00001C8.99854 6.4062 9.17334 5.82531 9.50226 5.33092C9.83118 4.83652 10.2994 4.45086 10.8477 4.22277C11.3959 3.99469 11.9996 3.93444 12.5821 4.04966C13.1646 4.16488 13.6999 4.45038 14.12 4.87001C14.4959 5.25408 14.7649 5.72984 14.9 6.25001C14.9328 6.37739 14.9904 6.49706 15.0695 6.60218C15.1486 6.70731 15.2476 6.79582 15.3609 6.86268C15.4742 6.92954 15.5995 6.97343 15.7298 6.99185C15.86 7.01026 15.9926 7.00284 16.12 6.97001C16.2474 6.93718 16.3671 6.87958 16.4722 6.8005C16.5773 6.72143 16.6658 6.62242 16.7327 6.50913C16.7995 6.39584 16.8434 6.27049 16.8618 6.14024C16.8802 6.00999 16.8728 5.87739 16.84 5.75001C16.6122 4.88481 16.1603 4.09495 15.53 3.46001C14.8302 2.76238 13.9393 2.28775 12.97 2.09605C12.0006 1.90436 10.9961 2.0042 10.0835 2.38297C9.17078 2.76173 8.3908 3.40244 7.84201 4.22418C7.29321 5.04593 7.00021 6.01186 7 7.00001V9.00001C6.20435 9.00001 5.44129 9.31608 4.87868 9.87869C4.31607 10.4413 4 11.2044 4 12V19C4 19.7957 4.31607 20.5587 4.87868 21.1213C5.44129 21.6839 6.20435 22 7 22H17C17.7956 22 18.5587 21.6839 19.1213 21.1213C19.6839 20.5587 20 19.7957 20 19V12C20 11.2044 19.6839 10.4413 19.1213 9.87869C18.5587 9.31608 17.7956 9.00001 17 9.00001ZM18 19C18 19.2652 17.8946 19.5196 17.7071 19.7071C17.5196 19.8947 17.2652 20 17 20H7C6.73478 20 6.48043 19.8947 6.29289 19.7071C6.10536 19.5196 6 19.2652 6 19V12C6 11.7348 6.10536 11.4804 6.29289 11.2929C6.48043 11.1054 6.73478 11 7 11H17C17.2652 11 17.5196 11.1054 17.7071 11.2929C17.8946 11.4804 18 11.7348 18 12V19Z"/></svg>