<svg viewBox="0 0 24 24" xmlns="http://www.w3.org/2000/svg"><path d="M17.5 10.9998C18.6582 11.0094 19.7837 10.6166 20.6844 9.88847C21.5852 9.16038 22.2052 8.14217 22.4386 7.00774C22.6721 5.8733 22.5044 4.69302 21.9643 3.66845C21.4243 2.64388 20.5452 1.83858 19.4774 1.39009C18.4095 0.941598 17.2191 0.877729 16.1094 1.20939C14.9997 1.54105 14.0396 2.24767 13.393 3.20857C12.7464 4.16947 12.4534 5.32504 12.5641 6.47794C12.6748 7.63084 13.1824 8.70954 14 9.52983C14.9281 10.4609 16.1855 10.989 17.5 10.9998ZM19.62 8.11983C19.1818 8.55454 18.6201 8.8435 18.0117 8.9473C17.4032 9.05109 16.7775 8.96468 16.22 8.69983L20.22 4.69983C20.4869 5.26174 20.5726 5.89273 20.4651 6.50546C20.3576 7.11818 20.0623 7.68234 19.62 8.11983ZM15.38 3.87983C15.9421 3.31706 16.7046 3.00053 17.5 2.99983C17.9436 3.00396 18.3808 3.10642 18.78 3.29983L14.78 7.29983C14.5131 6.73792 14.4274 6.10693 14.5349 5.49421C14.6424 4.88148 14.9377 4.31732 15.38 3.87983ZM20.5 11.9998C20.2348 11.9998 19.9804 12.1052 19.7929 12.2927C19.6054 12.4803 19.5 12.7346 19.5 12.9998V16.9998C19.5 17.265 19.3946 17.5194 19.2071 17.7069C19.0196 17.8945 18.7652 17.9998 18.5 17.9998H4.5C4.23478 17.9998 3.98043 17.8945 3.79289 17.7069C3.60536 17.5194 3.5 17.265 3.5 16.9998V7.40983L9.38 13.2898C9.93962 13.8502 10.6981 14.1665 11.49 14.1698C11.8927 14.1709 12.2915 14.0908 12.6625 13.9345C13.0336 13.7782 13.3695 13.5487 13.65 13.2598C13.8302 13.0734 13.931 12.8242 13.931 12.5648C13.931 12.3055 13.8302 12.0563 13.65 11.8698C13.5569 11.7746 13.4456 11.6989 13.3229 11.6472C13.2001 11.5956 13.0682 11.569 12.935 11.569C12.8018 11.569 12.6699 11.5956 12.5471 11.6472C12.4244 11.6989 12.3131 11.7746 12.22 11.8698C12.0331 12.0531 11.7818 12.1557 11.52 12.1557C11.2582 12.1557 11.0069 12.0531 10.82 11.8698L4.91 5.99983H9.5C9.76522 5.99983 10.0196 5.89447 10.2071 5.70694C10.3946 5.5194 10.5 5.26505 10.5 4.99983C10.5 4.73462 10.3946 4.48026 10.2071 4.29272C10.0196 4.10519 9.76522 3.99983 9.5 3.99983H4.5C3.70435 3.99983 2.94129 4.3159 2.37868 4.87851C1.81607 5.44112 1.5 6.20418 1.5 6.99983V16.9998C1.5 17.7955 1.81607 18.5585 2.37868 19.1212C2.94129 19.6838 3.70435 19.9998 4.5 19.9998H18.5C19.2956 19.9998 20.0587 19.6838 20.6213 19.1212C21.1839 18.5585 21.5 17.7955 21.5 16.9998V12.9998C21.5 12.7346 21.3946 12.4803 21.2071 12.2927C21.0196 12.1052 20.7652 11.9998 20.5 11.9998Z"/></svg>