<svg viewBox="0 0 24 24" xmlns="http://www.w3.org/2000/svg"><path d="M12 2C10.0568 2.00369 8.15658 2.5719 6.53084 3.63543C4.9051 4.69896 3.62399 6.21189 2.84355 7.98996C2.06311 9.76803 1.81703 11.7345 2.13529 13.6498C2.45354 15.5651 3.3224 17.3466 4.63601 18.7773C5.57422 19.7934 6.7129 20.6044 7.9803 21.159C9.24771 21.7137 10.6164 22 12 22C13.3836 22 14.7523 21.7137 16.0197 21.159C17.2871 20.6044 18.4258 19.7934 19.364 18.7773C20.6776 17.3466 21.5465 15.5651 21.8647 13.6498C22.183 11.7345 21.9369 9.76803 21.1565 7.98996C20.376 6.21189 19.0949 4.69896 17.4692 3.63543C15.8434 2.5719 13.9432 2.00369 12 2ZM12 20.0186C9.92452 20.0155 7.93119 19.2081 6.43944 17.7663C6.89234 16.6647 7.6628 15.7225 8.6529 15.0594C9.643 14.3963 10.808 14.0422 12 14.0422C13.192 14.0422 14.357 14.3963 15.3471 15.0594C16.3372 15.7225 17.1077 16.6647 17.5606 17.7663C16.0688 19.2081 14.0755 20.0155 12 20.0186ZM9.99619 10.0083C9.99619 9.61231 10.1137 9.22523 10.3339 8.89599C10.5541 8.56675 10.867 8.31014 11.2332 8.15861C11.5993 8.00707 12.0022 7.96743 12.3909 8.04468C12.7796 8.12193 13.1367 8.31261 13.4169 8.5926C13.6971 8.87259 13.888 9.22933 13.9653 9.61769C14.0426 10.0061 14.0029 10.4086 13.8513 10.7744C13.6996 11.1403 13.4428 11.4529 13.1133 11.6729C12.7837 11.8929 12.3963 12.0103 12 12.0103C11.4686 12.0103 10.9589 11.7994 10.5831 11.424C10.2073 11.0485 9.99619 10.5393 9.99619 10.0083ZM18.9232 16.0145C18.028 14.4847 16.6502 13.2947 15.0057 12.631C15.5158 12.053 15.8482 11.3403 15.963 10.5783C16.0778 9.8163 15.97 9.03739 15.6527 8.33504C15.3354 7.6327 14.8219 7.03676 14.174 6.61874C13.5261 6.20071 12.7713 5.97836 12 5.97836C11.2287 5.97836 10.4739 6.20071 9.82596 6.61874C9.17805 7.03676 8.66464 7.6327 8.34731 8.33504C8.02999 9.03739 7.92224 9.8163 8.037 10.5783C8.15176 11.3403 8.48415 12.053 8.99429 12.631C7.34977 13.2947 5.97202 14.4847 5.07685 16.0145C4.36344 14.8003 3.9865 13.4183 3.98478 12.0103C3.98478 9.88642 4.82924 7.84948 6.33238 6.34764C7.83553 4.8458 9.87423 4.00207 12 4.00207C14.1258 4.00207 16.1645 4.8458 17.6676 6.34764C19.1708 7.84948 20.0152 9.88642 20.0152 12.0103C20.0135 13.4183 19.6366 14.8003 18.9232 16.0145Z"/></svg>