<svg viewBox="0 0 24 24" xmlns="http://www.w3.org/2000/svg"><path fill-rule="evenodd" d="M17 7C17 9.76142 14.7614 12 12 12C9.23858 12 7 9.76142 7 7C7 4.23858 9.23858 2 12 2C14.7614 2 17 4.23858 17 7ZM15 7C15 8.65685 13.6569 10 12 10C10.3431 10 9 8.65685 9 7C9 5.34315 10.3431 4 12 4C13.6569 4 15 5.34315 15 7Z" clip-rule="evenodd"/><path fill-rule="evenodd" d="M11.8002 13C20.7814 13 24.0704 22 17.6626 22H6.35708C-0.0511122 22 3.23749 13 11.8002 13ZM11.8002 15C15.6326 15 17.9575 16.9077 18.7194 18.4064C19.1158 19.1859 18.9858 19.5823 18.9502 19.6486C18.9364 19.6745 18.8979 19.7398 18.7437 19.8149C18.5726 19.8982 18.2378 20 17.6626 20H6.35708C5.78219 20 5.44667 19.8983 5.27375 19.8143C5.11758 19.7384 5.07442 19.6703 5.0568 19.6379C5.01269 19.5569 4.88617 19.1518 5.264 18.3729C5.99264 16.8709 8.2177 15 11.8002 15Z" clip-rule="evenodd"/></svg>